<svg xmlns="http://www.w3.org/2000/svg" viewBox="0 0 800 600">
  <path d="M341 3128v15h-20v-15h9v-5h12v-3h-15v-21h32v21h-15v3h12v5h9v15h-20v-15h9v-3h-22v3h9zm-2 2h-16v2h3v1h-3v2h3v1h-3v2h3v1h-3v2h16v-11zm24 11v-11h-16v2h3v1h-3v2h3v1h-3v2h3v1h-3v2h16zm-6-40h-28v2h3v1h-3v2h3v1h-3v2h3v1h-3v2h3v1h-3v2h3v1h-3v2h28v-17zm-22.644 15.115l-1.561-1.25 4.997-6.242 3.702 2.744 4.921-6.161 3.573 4.362 3.816-4.63 1.543 1.273-5.364 6.507-3.548-4.332-4.583 5.737-3.703-2.746-3.793 4.738zm6.536-3.994l1.376-.18-.774-.574-.602.754zm-13.379 27.024l-.886-.464 1.989-3.796 2.21 1.612 1.938-3.686 2.426 1.836 1.43-2.952.9.436-1.962 4.049-2.457-1.86-1.928 3.667-2.21-1.61-1.45 2.768zm24 0l-.886-.464 1.989-3.796 2.21 1.612 1.938-3.686 2.426 1.836 1.43-2.952.9.436-1.962 4.049-2.457-1.86-1.928 3.667-2.21-1.61-1.45 2.768z" transform="translate(-321 -3099)" fill="url(#a)" fill-rule="evenodd"/>
</svg>
